<svg width="32" height="32" viewBox="0 0 32 32" fill="none" xmlns="http://www.w3.org/2000/svg">
<path d="M5 4H7.44444L7.93333 6.66667L5 4ZM9.88889 17.3333H22.1111L27 6.66667H7.93333L9.88889 17.3333ZM9.88889 17.3333L7.93333 6.66667L9.88889 17.3333ZM9.88889 17.3333L7.08633 20.3907C6.31633 21.2307 6.86144 22.6667 7.95044 22.6667H22.1111L9.88889 17.3333ZM22.1111 22.6667C21.4628 22.6667 20.8411 22.9476 20.3826 23.4477C19.9242 23.9478 19.6667 24.6261 19.6667 25.3333C19.6667 26.0406 19.9242 26.7189 20.3826 27.219C20.8411 27.719 21.4628 28 22.1111 28C22.7594 28 23.3812 27.719 23.8396 27.219C24.298 26.7189 24.5556 26.0406 24.5556 25.3333C24.5556 24.6261 24.298 23.9478 23.8396 23.4477C23.3812 22.9476 22.7594 22.6667 22.1111 22.6667ZM12.3333 25.3333C12.3333 26.0406 12.0758 26.7189 11.6174 27.219C11.1589 27.719 10.5372 28 9.88889 28C9.24058 28 8.61883 27.719 8.16041 27.219C7.70198 26.7189 7.44444 26.0406 7.44444 25.3333C7.44444 24.6261 7.70198 23.9478 8.16041 23.4477C8.61883 22.9476 9.24058 22.6667 9.88889 22.6667C10.5372 22.6667 11.1589 22.9476 11.6174 23.4477C12.0758 23.9478 12.3333 24.6261 12.3333 25.3333V25.3333Z" stroke="#F97316" stroke-width="2" stroke-linecap="round" stroke-linejoin="round"/>
</svg>
