<svg width="81" height="62" viewBox="0 0 81 62" fill="none" xmlns="http://www.w3.org/2000/svg">
<path d="M10 17.3333C10 15.3884 10.8165 13.5231 12.2699 12.1479C13.7233 10.7726 15.6946 10 17.75 10H64.25C66.3054 10 68.2767 10.7726 69.7301 12.1479C71.1835 13.5231 72 15.3884 72 17.3333V46.6667C72 48.6116 71.1835 50.4768 69.7301 51.8521C68.2767 53.2274 66.3054 54 64.25 54H17.75C15.6946 54 13.7233 53.2274 12.2699 51.8521C10.8165 50.4768 10 48.6116 10 46.6667V17.3333ZM17.75 13.6667C16.7223 13.6667 15.7367 14.053 15.01 14.7406C14.2833 15.4282 13.875 16.3609 13.875 17.3333V21H68.125V17.3333C68.125 16.3609 67.7167 15.4282 66.99 14.7406C66.2633 14.053 65.2777 13.6667 64.25 13.6667H17.75ZM68.125 28.3333H13.875V46.6667C13.875 47.6391 14.2833 48.5718 15.01 49.2594C15.7367 49.947 16.7223 50.3333 17.75 50.3333H64.25C65.2777 50.3333 66.2633 49.947 66.99 49.2594C67.7167 48.5718 68.125 47.6391 68.125 46.6667V28.3333Z" fill="#F97316"/>
<path d="M19.1311 38.8333C19.1311 37.8167 19.5237 36.8416 20.2227 36.1228C20.9216 35.4039 21.8695 35 22.8579 35H26.5847C27.5731 35 28.521 35.4039 29.2199 36.1228C29.9188 36.8416 30.3114 37.8167 30.3114 38.8333V42.6667C30.3114 43.6833 29.9188 44.6583 29.2199 45.3772C28.521 46.0961 27.5731 46.5 26.5847 46.5H22.8579C21.8695 46.5 20.9216 46.0961 20.2227 45.3772C19.5237 44.6583 19.1311 43.6833 19.1311 42.6667V38.8333Z" fill="#F97316"/>
</svg>
