<svg width="90" height="90" viewBox="0 0 90 90" fill="none" xmlns="http://www.w3.org/2000/svg">
<circle cx="45" cy="45" r="45" fill="#FCD34D"/>
<path d="M57.2222 62.1111V40.8713L59.6642 39.4609C60.4089 39.0321 61.0273 38.4144 61.4569 37.6702C61.8865 36.9259 62.1122 36.0815 62.1111 35.2222V32.7778C62.1111 31.4812 61.596 30.2377 60.6792 29.3208C59.7623 28.404 58.5188 27.8889 57.2222 27.8889H32.7778C31.4812 27.8889 30.2377 28.404 29.3208 29.3208C28.404 30.2377 27.8889 31.4812 27.8889 32.7778V35.2222C27.8889 36.9896 28.8324 38.5882 30.3358 39.4609L32.7778 40.8689V62.1111H57.2222ZM62.1111 62.1111C62.1111 63.4077 61.596 64.6512 60.6792 65.5681C59.7623 66.4849 58.5188 67 57.2222 67H32.7778C31.4812 67 30.2377 66.4849 29.3208 65.5681C28.404 64.6512 27.8889 63.4077 27.8889 62.1111V43.6922C26.4018 42.8342 25.167 41.5996 24.3088 40.1127C23.4505 38.6258 22.9991 36.9391 23 35.2222V32.7778C23 30.1845 24.0302 27.6975 25.8638 25.8638C27.6975 24.0302 30.1846 23 32.7778 23H57.2222C59.8155 23 62.3025 24.0302 64.1362 25.8638C65.9698 27.6975 67 30.1845 67 32.7778V35.2222C67 38.84 65.0347 42.0007 62.1111 43.6922V62.1111Z" fill="#F9FAFB"/>
</svg>
