<svg width="90" height="90" viewBox="0 0 90 90" fill="none" xmlns="http://www.w3.org/2000/svg">
<circle cx="45" cy="45" r="45" fill="#FCA5A5"/>
<path d="M45.3453 56.7381C52.0187 56.7381 57.4286 51.3282 57.4286 44.6548C57.4286 37.9813 52.0187 32.5714 45.3453 32.5714C38.6719 32.5714 33.262 37.9813 33.262 44.6548C33.262 51.3282 38.6719 56.7381 45.3453 56.7381Z" stroke="white" stroke-width="3" stroke-linecap="round" stroke-linejoin="round"/>
<path d="M45.0001 49.8333C43.7182 49.8333 42.4888 49.3241 41.5824 48.4177C40.676 47.5113 40.1667 46.2819 40.1667 45" stroke="white" stroke-width="3" stroke-linecap="round"/>
<path d="M36.0238 36.0238L20.8334 33.8296L33.8297 20.8333L36.0227 36.0238H36.0238Z" stroke="white" stroke-width="3" stroke-linejoin="round"/>
<path d="M53.9774 53.9774L69.1667 56.1704L56.1704 69.1667L53.9762 53.9762L53.9774 53.9774Z" stroke="white" stroke-width="3" stroke-linejoin="round"/>
</svg>
