<svg width="32" height="32" viewBox="0 0 32 32" fill="none" xmlns="http://www.w3.org/2000/svg">
<path d="M18 26H26V28H18V26Z" fill="#F97316"/>
<path d="M18 22H30V24H18V22Z" fill="#F97316"/>
<path d="M18 18H30V20H18V18Z" fill="#F97316"/>
<path d="M22.1921 11.217L17.4252 2L12.6582 11.217L2 12.695L9.71258 19.87L7.89132 30L15.3293 26.269V24.009L10.6756 26.344L11.778 20.208L11.9645 19.171L11.1755 18.438L6.50389 14.091L12.96 13.196L14.0499 13.045L14.5382 12.102L17.4252 6.519L20.3121 12.102L20.8004 13.045L21.8903 13.196L29.7013 14.281L30 12.3L22.1921 11.217Z" fill="#F97316"/>
</svg>
