<svg width="32" height="33" viewBox="0 0 32 33" fill="none" xmlns="http://www.w3.org/2000/svg">
<path d="M23.9724 15.1668H7.9961C7.2899 15.1668 6.61262 15.4565 6.11327 15.9722C5.61391 16.4878 5.33337 17.1872 5.33337 17.9165V28.9151C5.33337 29.6443 5.61391 30.3437 6.11327 30.8594C6.61262 31.375 7.2899 31.6647 7.9961 31.6647H23.9724C24.6786 31.6647 25.3559 31.375 25.8553 30.8594C26.3546 30.3437 26.6351 29.6443 26.6351 28.9151V17.9165C26.6351 17.1872 26.3546 16.4878 25.8553 15.9722C25.3559 15.4565 24.6786 15.1668 23.9724 15.1668ZM23.9724 28.9151H7.9961V23.4158H23.9724V28.9151ZM23.9724 20.6661H7.9961V17.9165H23.9724V20.6661ZM6.57154 6.80789L8.44876 8.74639C12.6026 4.44319 19.3526 4.44319 23.5198 8.74639L25.397 6.80789C20.2047 1.41857 11.7772 1.41857 6.57154 6.80789ZM10.3393 10.6986L12.2165 12.6371C13.2168 11.6072 14.5717 11.0288 15.9843 11.0288C17.3968 11.0288 18.7517 11.6072 19.752 12.6371L21.6292 10.6986C20.1314 9.15389 18.1011 8.28621 15.9843 8.28621C13.8674 8.28621 11.8371 9.15389 10.3393 10.6986Z" fill="#D1D5DB"/>
</svg>
