<svg width="90" height="90" viewBox="0 0 90 90" fill="none" xmlns="http://www.w3.org/2000/svg">
<circle cx="45" cy="45" r="45" fill="#67E8F9"/>
<path d="M29.6329 30.5755L29.75 30.436V30.2539V21.5625C29.75 21.2509 29.8422 21.0001 30.0225 20.7855C30.2018 20.5721 30.3759 20.5 30.5625 20.5H56.8125C56.9991 20.5 57.1732 20.5721 57.3525 20.7855C57.5328 21.0001 57.625 21.2509 57.625 21.5625V29.375V29.5893L57.7802 29.7371L64.322 35.9674C64.6838 36.403 64.9549 36.887 65.137 37.4219C65.3373 38.0099 65.4378 38.4434 65.4604 38.7392C65.4863 39.0776 65.5 39.5992 65.5 40.3125V68.4375C65.5 68.7491 65.4078 68.9999 65.2275 69.2145C65.0482 69.4279 64.8741 69.5 64.6875 69.5H25.3125C25.1259 69.5 24.9518 69.4279 24.7725 69.2145C24.5922 68.9999 24.5 68.7491 24.5 68.4375V40.3125C24.5 39.0474 24.5273 38.0779 24.5805 37.3974C24.6072 37.056 24.6395 36.7992 24.6751 36.6192C24.6929 36.5291 24.7096 36.468 24.723 36.43C24.7255 36.4229 24.7276 36.4173 24.7293 36.4131L29.6329 30.5755ZM26.125 66.875V67.375H26.625H47.625H48.125V66.875V41.875V41.375H47.625H26.625H26.125V41.875V66.875ZM26.2421 38.4284L25.552 39.25H26.625H47.625H47.858L48.0079 39.0716L53.2579 32.8216L53.948 32H52.875H31.875H31.642L31.4921 32.1784L26.2421 38.4284ZM56 23.125V22.625H55.5H31.875H31.375V23.125V29.375V29.875H31.875H55.5H56V29.375V23.125ZM57.1573 32.1379L56.7719 31.7709L56.4296 32.1784L51.1796 38.4284L50.4895 39.25H51.5625H63.375H64.625L63.7198 38.3879L57.1573 32.1379ZM63.875 41.875V41.375H63.375H50.25H49.75V41.875V66.875V67.375H50.25H63.375H63.875V66.875V41.875Z" fill="white" stroke="white"/>
</svg>
