<svg width="32" height="32" viewBox="0 0 32 32" fill="none" xmlns="http://www.w3.org/2000/svg">
<circle cx="16" cy="16" r="3" stroke="#F97316" stroke-width="2"/>
<path d="M12.578 27.9877C12.6254 28.149 12.5902 28.286 12.4723 28.4149C12.3397 28.56 12.1046 28.6788 11.8212 28.6788H8.82122C8.26893 28.6788 7.82122 28.2311 7.82122 27.6788L7.82122 24.6788C7.82122 24.3954 7.94004 24.1603 8.08509 24.0277C8.214 23.9098 8.35096 23.8746 8.51228 23.922C8.71723 23.9822 8.91921 24.0534 9.11732 24.1355C9.84527 24.437 10.5067 24.879 11.0639 25.4361C11.621 25.9933 12.063 26.6547 12.3645 27.3827C12.4466 27.5808 12.5178 27.7828 12.578 27.9877Z" stroke="#F97316" stroke-width="2"/>
<path d="M23.7587 23.922C23.92 23.8746 24.057 23.9098 24.1859 24.0277C24.3309 24.1603 24.4497 24.3954 24.4497 24.6788L24.4497 27.6788C24.4497 28.2311 24.002 28.6788 23.4497 28.6788L20.4497 28.6788C20.1664 28.6788 19.9313 28.56 19.7986 28.4149C19.6808 28.286 19.6456 28.149 19.693 27.9877C19.7532 27.7828 19.8244 27.5808 19.9065 27.3827C20.208 26.6547 20.65 25.9933 21.2071 25.4361C21.7643 24.879 22.4257 24.437 23.1536 24.1355C23.3518 24.0534 23.5537 23.9822 23.7587 23.922Z" stroke="#F97316" stroke-width="2"/>
<path d="M7.375 14.1982H3C1.89543 14.1982 1 13.3028 1 12.1982V8.79219V5C1 3.89543 1.89543 3 3 3H16H29C30.1046 3 31 3.89543 31 5V12.1982C31 13.3028 30.1046 14.1982 29 14.1982H25M7.375 14.1982V18.832V26.8718C7.375 27.9763 8.27043 28.8718 9.375 28.8718H23C24.1046 28.8718 25 27.9763 25 26.8718V10.406C25 9.30147 24.1046 8.40604 23 8.40604H9.375C8.27043 8.40604 7.375 9.30147 7.375 10.406V14.1982Z" stroke="#F97316" stroke-width="2"/>
</svg>
