<svg width="81" height="62" viewBox="0 0 81 62" fill="none" xmlns="http://www.w3.org/2000/svg">
<path d="M32.3195 37.1905L14.9652 37.1905C14.432 37.1905 14 37.6341 14 38.1817V56.0088C14 56.5564 14.432 57 14.9652 57H32.3195C32.8528 57 33.2847 56.5564 33.2847 56.0088V49.5697L42.4445 49.5697C42.7077 49.5697 42.9237 49.3479 42.9237 49.0776V33.7249H48.7085V40.4136C48.7085 40.9611 49.1405 41.4047 49.6737 41.4047H67.0347C67.568 41.4047 68 40.9611 68 40.4136V22.5864C68 22.0389 67.568 21.5953 67.0347 21.5953H49.6805C49.1472 21.5953 48.7152 22.0389 48.7152 22.5864V29.2751H42.9305V13.9224C42.9305 13.6521 42.7145 13.4303 42.4513 13.4303L33.2915 13.4303V6.99116C33.2915 6.4436 32.8595 6 32.3263 6H14.972C14.4388 6 14.0067 6.4436 14.0067 6.99116V24.8044C14.0067 25.352 14.4388 25.7956 14.972 25.7956L32.3195 25.7956C32.8528 25.7956 33.2847 25.352 33.2847 24.8044V17.8732H38.5903V45.1129H33.2847V38.1817C33.2847 37.6341 32.8528 37.1905 32.3195 37.1905ZM28.7083 52.2937H18.5833V41.8899H28.7083V52.2937ZM53.2917 26.2946L63.4168 26.2946V36.6915H53.2917V26.2946ZM28.7083 21.0893H18.5833V10.6855H28.7083V21.0893Z" fill="#F97316"/>
</svg>
