<svg width="32" height="32" viewBox="0 0 32 32" fill="none" xmlns="http://www.w3.org/2000/svg">
<path d="M13.3748 29H13.3747C13.2657 29 13.1637 28.9637 13.0853 28.9025L12.47 29.6908L13.0853 28.9025C13.0078 28.842 12.9594 28.7624 12.9406 28.6804C12.9406 28.68 12.9405 28.6797 12.9404 28.6793L12.3537 26.0447L12.242 25.5428L11.7689 25.3417C11.0521 25.037 10.3731 24.6563 9.74409 24.2067L9.3409 23.9185L8.86739 24.0648L6.21652 24.8838L6.21615 24.8839C6.11401 24.9155 6.00313 24.9121 5.9039 24.8748C5.80506 24.8377 5.72897 24.7714 5.68285 24.6939L5.6821 24.6926L3.0533 20.2868C3.05291 20.2861 3.05252 20.2855 3.05214 20.2848C3.00714 20.2073 2.99186 20.1206 3.0052 20.0376C3.01863 19.9539 3.06159 19.8715 3.13427 19.8063C3.13463 19.8059 3.135 19.8056 3.13537 19.8053L5.18884 17.9878L5.57833 17.6431L5.51971 17.1263C5.43469 16.3767 5.43469 15.6205 5.51971 14.8709L5.57841 14.3534L5.18798 14.0086L3.13499 12.1958C3.13461 12.1954 3.13423 12.1951 3.13386 12.1948C3.06109 12.1295 3.01808 12.047 3.00465 11.9633C2.99127 11.8799 3.00673 11.793 3.05212 11.7152C3.05238 11.7148 3.05265 11.7143 3.05291 11.7139L5.67697 7.30352L5.67708 7.30332C5.7232 7.22577 5.79929 7.15952 5.89812 7.1224C5.99736 7.08512 6.10824 7.08172 6.21037 7.11332L6.21075 7.11344L8.86162 7.93244L9.33549 8.07884L9.73881 7.79019C10.0615 7.55922 10.3955 7.3449 10.7379 7.15189C11.0717 6.97037 11.4144 6.8056 11.7644 6.65877L12.2409 6.45892L12.3536 5.95468L12.9421 3.32104C12.9421 3.32095 12.9421 3.32086 12.9421 3.32078C12.9607 3.23844 13.009 3.15853 13.0867 3.09779C13.1649 3.03661 13.2667 3.0002 13.3755 3H18.6269C18.7356 3.0002 18.8374 3.03661 18.9156 3.09779C18.9934 3.1586 19.0417 3.23861 19.0602 3.32103L19.0604 3.3218L19.6549 5.958L19.7676 6.45771L20.239 6.65822C20.9553 6.96287 21.6338 7.3436 22.2623 7.79314L22.6655 8.08154L23.1391 7.93529L25.7911 7.11638C25.8932 7.08489 26.004 7.08835 26.1031 7.12562C26.2018 7.16273 26.2778 7.22888 26.3239 7.30632C26.3239 7.30634 26.3239 7.30637 26.324 7.30639L28.9475 11.7158C28.9478 11.7163 28.9481 11.7169 28.9485 11.7175C29.0374 11.8706 29.0114 12.0667 28.8666 12.1965C28.8663 12.1968 28.866 12.1971 28.8657 12.1973L26.812 14.015L26.4226 14.3597L26.4812 14.8765C26.5662 15.6261 26.5662 16.3823 26.4812 17.1319L26.4226 17.6487L26.812 17.9934L28.8645 19.81C28.865 19.8104 28.8655 19.8109 28.866 19.8113C29.0123 19.9433 29.0368 20.1387 28.9485 20.2909C28.9481 20.2915 28.9478 20.292 28.9475 20.2926L26.3239 24.7021L26.3238 24.7023C26.2777 24.7798 26.2016 24.8461 26.1028 24.8832C26.0035 24.9205 25.8926 24.9239 25.7905 24.8923L25.7901 24.8922L23.1393 24.0732L22.6657 23.9269L22.2626 24.2151C21.6342 24.6642 20.9558 25.0445 20.2396 25.3485L19.768 25.5488L19.6551 26.0486L19.0605 28.6792L19.0605 28.6793C19.0419 28.7617 18.9935 28.8416 18.9157 28.9024C18.8374 28.9636 18.7356 28.9999 18.6267 29H13.3748Z" stroke="#F97316" stroke-width="2"/>
</svg>
