<svg width="90" height="90" viewBox="0 0 90 90" fill="none" xmlns="http://www.w3.org/2000/svg">
<circle cx="45" cy="45" r="45" fill="#C4B5FD"/>
<path d="M55.6675 39.3206V37.3731C55.6656 35.4966 54.9994 33.6975 53.8151 32.3706C52.6307 31.0437 51.0249 30.2973 49.35 30.2952H46.1913V24.9867H52.5088C52.9275 24.9873 53.3289 25.1739 53.625 25.5056C53.921 25.8374 54.0876 26.2871 54.0881 26.7562C54.0881 27.2255 54.2545 27.6756 54.5507 28.0074C54.8469 28.3393 55.2486 28.5257 55.6675 28.5257C56.0864 28.5257 56.4881 28.3393 56.7843 28.0074C57.0805 27.6756 57.2469 27.2255 57.2469 26.7562C57.2455 25.3488 56.7458 23.9995 55.8576 23.0043C54.9693 22.0091 53.7649 21.4493 52.5088 21.4478H39.8738C39.4549 21.4478 39.0532 21.6342 38.757 21.966C38.4608 22.2979 38.2944 22.7479 38.2944 23.2172C38.2944 23.6865 38.4608 24.1366 38.757 24.4685C39.0532 24.8003 39.4549 24.9867 39.8738 24.9867H43.0325V30.2952H39.8738C38.1988 30.2973 36.593 31.0437 35.4087 32.3706C34.2243 33.6975 33.5581 35.4966 33.5563 37.3731V39.3206C31.7739 39.7311 30.1724 40.8176 29.0216 42.3967C27.8708 43.9759 27.2411 45.9513 27.2388 47.99V65.6848C27.2397 66.6231 27.5728 67.5227 28.165 68.1861C28.7572 68.8496 29.5601 69.2228 30.3975 69.2238H58.8262C59.6637 69.2228 60.4666 68.8496 61.0588 68.1861C61.651 67.5227 61.9841 66.6231 61.985 65.6848V47.99C61.9826 45.9513 61.353 43.9759 60.2022 42.3967C59.0514 40.8176 57.4499 39.7311 55.6675 39.3206ZM39.8738 33.8341H49.35C50.1875 33.8352 50.9904 34.2084 51.5825 34.8718C52.1747 35.5353 52.5078 36.4348 52.5088 37.3731V39.1426H36.715V37.3731C36.716 36.4348 37.0491 35.5353 37.6412 34.8718C38.2334 34.2084 39.0363 33.8352 39.8738 33.8341ZM58.8262 65.6848H30.3975V47.99C30.3989 46.5826 30.8986 45.2333 31.7868 44.2381C32.6751 43.2429 33.8794 42.6831 35.1356 42.6816H54.0881C55.3443 42.6831 56.5487 43.2429 57.4369 44.2381C58.3252 45.2333 58.8248 46.5826 58.8262 47.99L58.8282 65.6848H58.8262Z" fill="white"/>
</svg>
