<svg width="32" height="32" viewBox="0 0 32 32" fill="none" xmlns="http://www.w3.org/2000/svg">
<path d="M7.84853 15.5409C7.95709 13.5304 8.79546 11.6579 10.2309 10.2236C11.7629 8.69317 13.8498 7.83496 16.0211 7.83496C18.2045 7.83496 20.2612 8.68117 21.8113 10.2236C21.8957 10.3076 21.9741 10.3916 22.0586 10.4816L20.5507 11.6579C20.4789 11.7132 20.4242 11.7876 20.3929 11.8724C20.3617 11.9573 20.3551 12.0492 20.374 12.1376C20.3929 12.226 20.4365 12.3073 20.4998 12.3721C20.563 12.437 20.6434 12.4827 20.7317 12.5041L26.6545 13.9445C26.9561 14.0165 27.2516 13.7884 27.2516 13.4824L27.2818 7.40285C27.2818 7.00075 26.8234 6.77269 26.5037 7.02476L25.1044 8.11703C22.8969 5.5964 19.652 4 16.0271 4C9.54939 4 4.26586 9.10728 4.00048 15.5049C3.98842 15.7749 4.20555 16.003 4.48299 16.003H7.37205C7.62537 15.997 7.83647 15.799 7.84853 15.5409ZM27.517 15.997H24.628C24.3746 15.997 24.1635 16.195 24.1454 16.4531C24.0369 18.4636 23.1985 20.3361 21.763 21.7704C20.231 23.3008 18.1442 24.159 15.9729 24.159C13.7895 24.159 11.7328 23.3128 10.1827 21.7704C10.0983 21.6864 10.0198 21.6024 9.9354 21.5124L11.4433 20.3361C11.5151 20.2808 11.5698 20.2064 11.6011 20.1216C11.6323 20.0367 11.6389 19.9448 11.62 19.8564C11.6011 19.768 11.5575 19.6867 11.4942 19.6219C11.4309 19.557 11.3506 19.5113 11.2623 19.4899L5.33945 18.0495C5.03788 17.9775 4.74234 18.2056 4.74234 18.5116L4.71822 24.5971C4.71822 24.9992 5.17661 25.2273 5.49627 24.9752L6.89556 23.883C9.10307 26.4036 12.348 28 15.9729 28C22.4506 28 27.7341 22.8927 27.9995 16.4951C28.0116 16.2251 27.7945 15.997 27.517 15.997Z" fill="#84CC16"/>
</svg>
